# xmcd
#
# Track frame offsets: 
#        174
#        29523
#        42707
#        58666
#        75216
#        87605
#        105912
#        124363
#        145943
#        166701
#
# Disc length: 2471 seconds
#
# Revision: 0
# Processed by: cddbd v1.5.2PL0 Copyright (c) Steve Scherf et al.
# Submitted via: ExactAudioCopyFreeDBPlugin 1.0
#
DISCID=8009a50a
DTITLE=Chandrabindoo - Juju
DYEAR=2003
DGENRE=Bangla Rock
TTITLE0=Maan
TTITLE1=Juju
TTITLE2=Geet Gobinda
TTITLE3=Icom Bicom
TTITLE4=Aita Tomar Gaan
TTITLE5=Ki Aar Karbo
TTITLE6=Anko Ki Kathin
TTITLE7=Aami Amar Maan
TTITLE8=Ma Dhake Khokha
TTITLE9=Bagiye Kali
EXTD=
EXTT0=
EXTT1=
EXTT2=
EXTT3=
EXTT4=
EXTT5=
EXTT6=
EXTT7=
EXTT8=
EXTT9=
PLAYORDER=
